# xmcd CD database file
#
# Track frame offsets:
#	150
#	16507
#	32131
#	47779
#	65598
#	82721
#	100468
#	117102
#	134927
#	153090
#	166863
#	185811
#
# Disc length: 2725 seconds
#
# Revision: 0
# Processed by: cddbd v1.5.2PL0 Copyright (c) Steve Scherf et al.
# Submitted via: CDex 1.51
#
DISCID=970aa30c
DTITLE=Jared Campbell - Rest Out
DYEAR=2004
DGENRE=Blues
TTITLE0=Rainy Labor Day
TTITLE1=Stay On The Line
TTITLE2=Only Getting Better
TTITLE3=Standing There
TTITLE4=Rest Out
TTITLE5=Sweet Jenny
TTITLE6=Drive On The Left Side
TTITLE7=Fate
TTITLE8=Life Is Good
TTITLE9=Don't Waste It
TTITLE10=Take It In
TTITLE11=Catch A Glimpse Of Blue
EXTD=YEAR: 2004
EXTT0=
EXTT1=
EXTT2=
EXTT3=
EXTT4=
EXTT5=
EXTT6=
EXTT7=
EXTT8=
EXTT9=
EXTT10=
EXTT11=
PLAYORDER=
